<?xml version="1.0" encoding="UTF-8"?>
<svg width="64px" height="84px" viewBox="0 0 64 84" version="1.1" xmlns="http://www.w3.org/2000/svg" xmlns:xlink="http://www.w3.org/1999/xlink">
    <!-- Generator: Sketch 49.3 (51167) - http://www.bohemiancoding.com/sketch -->
    <title>icon</title>
    <desc>Created with Sketch.</desc>
    <defs></defs>
    <g id="Desktop" stroke="none" stroke-width="1" fill="none" fill-rule="evenodd" stroke-linecap="round" stroke-linejoin="round">
        <g id="hire-us@2x" transform="translate(-402.000000, -1366.000000)" stroke="#D6372E" stroke-width="4">
            <g id="section-2" transform="translate(-23.000000, 963.000000)">
                <g id="grid" transform="translate(357.000000, 345.000000)">
                    <g id="item">
                        <g id="icon" transform="translate(70.000000, 60.000000)">
                            <path d="M43.4782609,22.6086957 C43.4782609,23.5704348 39.8278261,26.0869565 29.5652174,26.0869565 C19.0417391,26.0869565 15.6521739,23.5704348 15.6521739,22.6086957 C15.6521739,21.6469565 19.5043478,19.1304348 29.5652174,19.1304348 C39.8278261,19.1304348 43.4782609,21.6469565 43.4782609,22.6086957 Z" id="Stroke-1"></path>
                            <path d="M43.4782609,22.6086957 L43.4782609,33.0434783 C43.4782609,33.0434783 40.32,37.7078261 43.4782609,40 C45.0156522,41.1165217 48.3913043,42.2956522 51.6173913,43.2504348 C56.0626087,44.5686957 59.1304348,48.6295652 59.1304348,53.2678261 L59.1304348,69.5652174 C59.1304348,75.3269565 54.4573913,80 48.6956522,80 L10.4347826,80 C4.67304348,80 0,75.3269565 0,69.5652174 L0,53.2678261 C0,48.6295652 3.06782609,44.5686957 7.51304348,43.2504348 C10.7391304,42.2956522 14.1147826,41.1165217 15.6521739,40 C18.8104348,37.7078261 15.6521739,33.0434783 15.6521739,33.0434783 L15.6521739,22.6086957" id="Stroke-3"></path>
                            <path d="M43.4782609,31.3043478 C43.4782609,32.266087 39.8278261,34.7826087 29.5652174,34.7826087 C19.0417391,34.7826087 15.6521739,32.266087 15.6521739,31.3043478" id="Stroke-5"></path>
                            <path d="M14,69 L50.0289855,0" id="Stroke-7"></path>
                            <path d="M0,53.9130435 C0,56.7947826 2.33565217,59.1304348 5.2173913,59.1304348 L53.9130435,59.1304348 C56.7947826,59.1304348 59.1304348,56.7947826 59.1304348,53.9130435" id="Stroke-9"></path>
                        </g>
                    </g>
                </g>
            </g>
        </g>
    </g>
</svg>