<?xml version="1.0" encoding="UTF-8"?>
<svg width="64px" height="85px" viewBox="0 0 64 85" version="1.1" xmlns="http://www.w3.org/2000/svg" xmlns:xlink="http://www.w3.org/1999/xlink">
    <!-- Generator: Sketch 49.3 (51167) - http://www.bohemiancoding.com/sketch -->
    <title>icon</title>
    <desc>Created with Sketch.</desc>
    <defs></defs>
    <g id="Desktop" stroke="none" stroke-width="1" fill="none" fill-rule="evenodd" stroke-linecap="round" stroke-linejoin="round">
        <g id="hire-us@2x" transform="translate(-973.000000, -1366.000000)" stroke="#D6372E" stroke-width="4">
            <g id="section-2" transform="translate(-23.000000, 963.000000)">
                <g id="grid" transform="translate(357.000000, 345.000000)">
                    <g id="item-copy-2" transform="translate(571.333333, 0.000000)">
                        <g id="icon" transform="translate(70.000000, 60.000000)">
                            <path d="M43.4782609,3.60869565 C43.4782609,4.57043478 39.8278261,7.08695652 29.5652174,7.08695652 C19.0417391,7.08695652 15.6521739,4.57043478 15.6521739,3.60869565 C15.6521739,2.64695652 19.5043478,0.130434783 29.5652174,0.130434783 C39.8278261,0.130434783 43.4782609,2.64695652 43.4782609,3.60869565 Z" id="Stroke-1"></path>
                            <path d="M43.4782609,3.60869565 L43.4782609,14.0434783 C43.4782609,14.0434783 40.32,18.7078261 43.4782609,21 C45.0156522,22.1165217 48.3913043,23.2956522 51.6173913,24.2504348 C56.0626087,25.5686957 59.1304348,29.6295652 59.1304348,34.2678261 L59.1304348,70.5652174 C59.1304348,76.3269565 54.4573913,81 48.6956522,81 L10.4347826,81 C4.67304348,81 0,76.3269565 0,70.5652174 L0,34.2678261 C0,29.6295652 3.06782609,25.5686957 7.51304348,24.2504348 C10.7391304,23.2956522 14.1147826,22.1165217 15.6521739,21 C18.8104348,18.7078261 15.6521739,14.0434783 15.6521739,14.0434783 L15.6521739,3.60869565" id="Stroke-3"></path>
                            <polyline id="Path-3" points="19.622062 40 10 49.8073913 20 60"></polyline>
                            <polyline id="Path-3-Copy" transform="translate(44.000000, 50.000000) scale(-1, 1) translate(-44.000000, -50.000000) " points="48.622062 40 39 49.8073913 49 60"></polyline>
                            <path d="M25.6666667,64.0320243 L33.6499678,35.1137445" id="Line-5"></path>
                            <path d="M43.4782609,12.3043478 C43.4782609,13.266087 39.8278261,15.7826087 29.5652174,15.7826087 C19.0417391,15.7826087 15.6521739,13.266087 15.6521739,12.3043478" id="Stroke-5"></path>
                        </g>
                    </g>
                </g>
            </g>
        </g>
    </g>
</svg>