<?xml version="1.0" encoding="UTF-8"?>
<svg width="89px" height="79px" viewBox="0 0 89 79" version="1.1" xmlns="http://www.w3.org/2000/svg" xmlns:xlink="http://www.w3.org/1999/xlink">
    <!-- Generator: Sketch 49.3 (51167) - http://www.bohemiancoding.com/sketch -->
    <title>icon</title>
    <desc>Created with Sketch.</desc>
    <defs></defs>
    <g id="Desktop" stroke="none" stroke-width="1" fill="none" fill-rule="evenodd">
        <g id="hire-us@2x" transform="translate(-1105.000000, -518.000000)" stroke="#D6372E" stroke-width="4">
            <g id="section-1" transform="translate(192.000000, 116.000000)">
                <g id="grid" transform="translate(0.000000, 341.000000)">
                    <g id="item-copy-3" transform="translate(857.000000, 0.000000)">
                        <g id="icon" transform="translate(56.000000, 61.000000)">
                            <path d="M86.3749682,71.9337389 C86.3749682,56.6463969 86.3749682,54.1806946 86.3749682,32.0943459 C86.3749682,31.5704509 86.3678692,31.1018849 86.3538124,30.6894816 L86.3527296,30.6036958 C86.3544349,30.4105171 86.3541549,30.217095 86.3518844,30.0234482 L86.3477605,29.6717254 C86.1679607,14.3368535 73.6856109,2 58.3496849,2 L30,2 C14.536027,2 2,14.536027 2,30 C2,45.463973 14.536027,58 30,58 L56.4342771,58.0020219 C69.2804691,58.5800912 79.3076442,63.2401698 86.3749682,71.9337389 Z" id="Rectangle-6" transform="translate(44.187484, 39.184506) scale(-1, 1) translate(-44.187484, -39.184506) "></path>
                            <rect id="Rectangle-7" x="21" y="26" width="10" height="10" rx="5"></rect>
                            <rect id="Rectangle-7-Copy" x="39" y="26" width="10" height="10" rx="5"></rect>
                            <rect id="Rectangle-7-Copy-2" x="57" y="26" width="10" height="10" rx="5"></rect>
                        </g>
                    </g>
                </g>
            </g>
        </g>
    </g>
</svg>